<svg xmlns="http://www.w3.org/2000/svg" viewBox="0 0 160 73.13"><defs><style>.cls-1,.cls-2,.cls-3,.cls-4{fill:none;stroke:#000;stroke-miterlimit:10;stroke-width:2px;}.cls-2{stroke-dasharray:6.08 6.08;}.cls-3{stroke-dasharray:6.16 6.16;}.cls-4{stroke-dasharray:5.99 5.99;}</style></defs><title>dotted</title><g id="Layer_2" data-name="Layer 2"><g id="graphics"><line class="cls-1" y1="33" x2="3" y2="33"/><line class="cls-2" x1="9.08" y1="33" x2="139.84" y2="33"/><line class="cls-1" x1="142.88" y1="33" x2="145.88" y2="33"/><polygon points="160 33 140.1 41.13 144.82 33 140.1 24.87 160 33"/><line class="cls-1" y1="1" x2="3" y2="1"/><line class="cls-3" x1="9.16" y1="1" x2="153.92" y2="1"/><line class="cls-1" x1="157" y1="1" x2="160" y2="1"/><line class="cls-1" x1="145.88" y1="65" x2="142.88" y2="65"/><line class="cls-4" x1="136.89" y1="65" x2="20.12" y2="65"/><line class="cls-1" x1="17.12" y1="65" x2="14.12" y2="65"/><polygon points="160 65 140.1 56.87 144.82 65 140.1 73.13 160 65"/><polygon points="0 65 19.9 56.87 15.18 65 19.9 73.13 0 65"/></g></g></svg>