<svg xmlns="http://www.w3.org/2000/svg" viewBox="0 0 306 724"><defs><style>.cls-1{fill:#fff;}.cls-1,.cls-2{stroke:#000;stroke-miterlimit:10;stroke-width:2px;}.cls-2{fill:none;}.cls-3{font-size:18px;fill:#1a1a1a;font-family:RobotoCondensed-Regular, Roboto Condensed;}.cls-4{letter-spacing:-0.01em;}.cls-5{letter-spacing:-0.01em;}.cls-6{letter-spacing:-0.01em;}.cls-7{letter-spacing:-0.04em;}.cls-8{letter-spacing:-0.01em;}.cls-9{letter-spacing:-0.01em;}.cls-10{letter-spacing:-0.01em;}</style></defs><title>sample1</title><g id="Layer_2" data-name="Layer 2"><g id="graphics"><rect class="cls-1" x="65" y="1" width="120" height="66" rx="33" ry="33"/><rect class="cls-1" x="73" y="657" width="120" height="66" rx="33" ry="33"/><rect class="cls-1" x="57" y="121" width="136" height="72" rx="11.75" ry="11.75"/><path class="cls-1" d="M137,478.94V422.08a9.51,9.51,0,0,0-9.51-9.51h-117A9.51,9.51,0,0,0,1,422.08v61C46.33,504.84,91.67,458,137,478.94Z"/><path class="cls-1" d="M305,478.94V422.08a9.51,9.51,0,0,0-9.51-9.51h-117a9.51,9.51,0,0,0-9.51,9.51v61C214.33,504.84,259.67,458,305,478.94Z"/><path class="cls-1" d="M205.74,609H18.88c-8.39,0-12.17-5.85-8.44-13.06l27.87-53.89c3.73-7.21,13.56-13,21.95-13H247.12c8.39,0,12.17,5.84,8.44,13l-27.87,53.89C224,603.15,214.13,609,205.74,609Z"/><line class="cls-2" x1="129" y1="67" x2="129" y2="108.88"/><polygon points="129 123 120.87 103.1 129 107.83 137.13 103.1 129 123"/><line class="cls-2" x1="129" y1="195" x2="129" y2="236.88"/><polygon points="129 251 120.87 231.1 129 235.82 137.13 231.1 129 251"/><line class="cls-2" x1="65" y1="315" x2="65" y2="396.88"/><polygon points="65 411 56.87 391.1 65 395.82 73.13 391.1 65 411"/><line class="cls-2" x1="193" y1="315" x2="193" y2="396.88"/><polygon points="193 411 184.87 391.1 193 395.82 201.13 391.1 193 411"/><line class="cls-2" x1="65" y1="481" x2="65" y2="514.88"/><polygon points="65 529 56.87 509.1 65 513.82 73.13 509.1 65 529"/><line class="cls-2" x1="225" y1="481" x2="225" y2="514.88"/><polygon points="225 529 216.87 509.1 225 513.82 233.13 509.1 225 529"/><line class="cls-2" x1="129" y1="609" x2="129" y2="642.88"/><polygon points="129 657 120.87 637.1 129 641.82 137.13 637.1 129 657"/><rect class="cls-1" x="83.75" y="269.75" width="90.51" height="90.51" transform="translate(-184.96 183.48) rotate(-45)"/></g><g id="text"><text class="cls-3" transform="translate(98.08 39)">Начало</text><text class="cls-3" transform="translate(110.62 695)"><tspan class="cls-4">К</tspan><tspan x="9.7" y="0">онец</tspan></text><text class="cls-3" transform="translate(72.47 153)"><tspan class="cls-5">Р</tspan><tspan x="9.85" y="0">ассм</tspan><tspan class="cls-6" x="46.01" y="0">о</tspan><tspan x="54.56" y="0">трение</tspan><tspan x="26.99" y="21.6">заявки</tspan></text><text class="cls-3" transform="translate(39.02 345)">Да</text><text class="cls-3" transform="translate(203.63 345)">Н<tspan class="cls-5" x="10.95" y="0">е</tspan><tspan x="19.03" y="0">т</tspan></text><text class="cls-3" transform="translate(17.82 441)">Документ об<tspan class="cls-7" x="7.98" y="21.6">о</tspan><tspan x="16.1" y="21.6">до</tspan><tspan class="cls-8" x="34.39" y="21.6">б</tspan><tspan x="42.93" y="21.6">рении</tspan></text><text class="cls-3" transform="translate(185.82 441)">Документ об<tspan class="cls-6" x="22.53" y="21.6">о</tspan><tspan x="31.08" y="21.6">тказе</tspan></text><text class="cls-3" transform="translate(102.97 307)">Заявка<tspan class="cls-7" x="-12.29" y="21.6">о</tspan><tspan x="-4.17" y="21.6">до</tspan><tspan class="cls-8" x="14.12" y="21.6">б</tspan><tspan x="22.66" y="21.6">рена?</tspan></text><text class="cls-3" transform="translate(98.19 553)">Отправка<tspan x="-4.81" y="21.6">докумен</tspan><tspan class="cls-9" x="58.46" y="21.6">т</tspan><tspan x="66.04" y="21.6">а</tspan><tspan x="-5.01" y="43.2">заяви</tspan><tspan class="cls-10" x="37.51" y="43.2">т</tspan><tspan x="45.07" y="43.2">елю</tspan></text></g></g></svg>