<svg xmlns="http://www.w3.org/2000/svg" viewBox="0 0 346 376"><defs><style>.cls-1{fill:#fff;}.cls-1,.cls-2{stroke:#000;stroke-miterlimit:10;stroke-width:2px;}.cls-2{fill:none;}.cls-3{font-size:18px;fill:#1a1a1a;font-family:RobotoCondensed-Regular, Roboto Condensed;}.cls-4{letter-spacing:-0.02em;}.cls-5{letter-spacing:-0.01em;}.cls-6{letter-spacing:-0.04em;}.cls-7{letter-spacing:-0.01em;}.cls-8{letter-spacing:-0.01em;}.cls-9{letter-spacing:0.01em;}</style></defs><title>sample3</title><g id="Layer_2" data-name="Layer 2"><g id="graphics"><rect class="cls-1" x="121" y="1" width="136" height="88" rx="11.75" ry="11.75"/><line class="cls-2" x1="145" y1="91" x2="145" y2="132.88"/><polygon points="145 147 136.87 127.1 145 131.82 153.13 127.1 145 147"/><line class="cls-2" x1="233" y1="91" x2="233" y2="132.88"/><polygon points="233 147 224.87 127.1 233 131.82 241.13 127.1 233 147"/><rect class="cls-1" x="57" y="145" width="136" height="86" rx="11.75" ry="11.75"/><rect class="cls-1" x="1" y="289" width="136" height="86" rx="11.75" ry="11.75"/><rect class="cls-1" x="153" y="289" width="136" height="86" rx="11.75" ry="11.75"/><line class="cls-2" x1="89" y1="233" x2="89" y2="274.88"/><polygon points="89 289 80.87 269.1 89 273.82 97.13 269.1 89 289"/><rect class="cls-1" x="209" y="145" width="136" height="86" rx="11.75" ry="11.75"/><line class="cls-2" x1="169" y1="233" x2="169" y2="274.88"/><polygon points="169 289 160.87 269.1 169 273.82 177.13 269.1 169 289"/></g><g id="text"><text class="cls-3" transform="translate(153.65 49)">Дирек<tspan class="cls-4" x="45.87" y="0">т</tspan><tspan x="53.22" y="0">ор</tspan></text><text class="cls-3" transform="translate(66.61 185)">Замести<tspan class="cls-5" x="62.15" y="0">т</tspan><tspan x="69.71" y="0">ель по</tspan><tspan x="7.44" y="21.6">произв</tspan><tspan class="cls-6" x="59.33" y="21.6">о</tspan><tspan x="67.44" y="21.6">дст</tspan><tspan class="cls-7" x="92.79" y="21.6">в</tspan><tspan x="101.49" y="21.6">у</tspan></text><text class="cls-3" transform="translate(29.67 329)">Проектное<tspan class="cls-8" x="20.04" y="21.6">б</tspan><tspan x="28.58" y="21.6">юро</tspan></text><text class="cls-3" transform="translate(168.5 337)">Произв<tspan class="cls-6" x="54" y="0">о</tspan><tspan x="62.11" y="0">дство</tspan></text><text class="cls-3" transform="translate(229.37 185)">Замести<tspan class="cls-5" x="62.15" y="0">т</tspan><tspan x="69.71" y="0">ель</tspan><tspan x="14.47" y="21.6">по сбы</tspan><tspan class="cls-9" x="65.14" y="21.6">т</tspan><tspan x="72.96" y="21.6">у</tspan></text></g></g></svg>