<?xml version="1.0" encoding="utf-8"?>
<!-- Generator: Adobe Illustrator 22.0.1, SVG Export Plug-In . SVG Version: 6.00 Build 0)  -->
<svg version="1.1" id="Layer_1" xmlns="http://www.w3.org/2000/svg"  x="0px" y="0px"
	 viewBox="0 0 144.4 40" style="enable-background:new 0 0 144.4 40;" xml:space="preserve">
<style type="text/css">
	.st0{fill:#FFFFFF;}
</style>
<g>
	<path class="st0" d="M20,0C9,0,0,9,0,20s9,20,20,20s20-9,20-20S31,0,20,0z M14,31.8c0,0,6.5-4.2,5-10.3C17.2,14.6,6.7,7.2,6.7,7.2
		S32.6,14.4,33,18.8C33.3,22.7,19,29.6,14,31.8z"/>
	<g>
		<path class="st0" d="M53.5,10.4L53.5,10.4c0,0.8-0.2,1.4-0.6,1.8c-0.4,0.4-1,0.6-1.7,0.6c-0.8,0-1.4-0.3-1.8-0.8
			c-0.4-0.5-0.7-1.2-0.7-2.1V7.9c0-0.9,0.2-1.6,0.7-2.1c0.4-0.5,1-0.8,1.8-0.8c0.8,0,1.3,0.2,1.7,0.6c0.4,0.4,0.6,1,0.6,1.8l0,0h-1
			c0-0.6-0.1-1-0.3-1.2c-0.2-0.3-0.5-0.4-1-0.4c-0.4,0-0.8,0.2-1,0.5c-0.2,0.4-0.4,0.9-0.4,1.5V10c0,0.7,0.1,1.2,0.4,1.5
			c0.2,0.4,0.6,0.5,1,0.5c0.4,0,0.8-0.1,1-0.4c0.2-0.3,0.3-0.7,0.3-1.2H53.5z"/>
		<path class="st0" d="M59,9.2h-2.8V12h3.3v0.8h-4.4V5.1h4.3v0.8h-3.3v2.5H59V9.2z"/>
		<path class="st0" d="M60.9,12.8V5.1h2.1c0.7,0,1.3,0.2,1.7,0.5c0.4,0.3,0.6,0.9,0.6,1.5c0,0.4-0.1,0.7-0.3,1
			c-0.2,0.3-0.4,0.5-0.8,0.6c0.4,0.1,0.7,0.3,1,0.7c0.2,0.3,0.3,0.7,0.3,1.2c0,0.7-0.2,1.2-0.6,1.6c-0.4,0.4-0.9,0.6-1.7,0.6H60.9z
			 M62,8.4h1.2c0.4,0,0.6-0.1,0.8-0.3c0.2-0.2,0.3-0.5,0.3-0.9c0-0.4-0.1-0.7-0.3-1c-0.2-0.2-0.5-0.3-0.9-0.3H62V8.4z M62,9.2V12
			h1.4c0.4,0,0.7-0.1,0.9-0.3c0.2-0.2,0.3-0.6,0.3-1c0-0.4-0.1-0.8-0.3-1c-0.2-0.3-0.4-0.4-0.8-0.4H62z"/>
		<path class="st0" d="M70.7,10.8h-2.4l-0.6,1.9h-1.1L69,5.1h1l2.3,7.7h-1.1L70.7,10.8z M68.5,10h2l-1-3.3h0L68.5,10z"/>
		<path class="st0" d="M78.2,10.4L78.2,10.4c0,0.8-0.2,1.4-0.6,1.8c-0.4,0.4-1,0.6-1.7,0.6c-0.8,0-1.4-0.3-1.8-0.8
			c-0.4-0.5-0.7-1.2-0.7-2.1V7.9c0-0.9,0.2-1.6,0.7-2.1c0.4-0.5,1-0.8,1.8-0.8c0.8,0,1.3,0.2,1.7,0.6c0.4,0.4,0.6,1,0.6,1.8l0,0h-1
			c0-0.6-0.1-1-0.3-1.2c-0.2-0.3-0.5-0.4-1-0.4c-0.4,0-0.8,0.2-1,0.5c-0.2,0.4-0.4,0.9-0.4,1.5V10c0,0.7,0.1,1.2,0.4,1.5
			c0.2,0.4,0.6,0.5,1,0.5c0.4,0,0.8-0.1,1-0.4c0.2-0.3,0.3-0.7,0.3-1.2H78.2z"/>
		<path class="st0" d="M84,5.9h-2v6.9H81V5.9h-2V5.1h5V5.9z"/>
		<path class="st0" d="M90.1,10c0,0.9-0.2,1.6-0.7,2.1c-0.5,0.5-1.1,0.8-1.9,0.8c-0.8,0-1.4-0.3-1.9-0.8C85.2,11.6,85,10.9,85,10
			V7.9c0-0.9,0.2-1.6,0.7-2.1C86.1,5.3,86.8,5,87.5,5c0.8,0,1.4,0.3,1.9,0.8c0.5,0.5,0.7,1.2,0.7,2.1V10z M89.1,7.9
			c0-0.7-0.1-1.2-0.4-1.5C88.4,6,88,5.8,87.5,5.8c-0.5,0-0.8,0.2-1.1,0.5C86.2,6.7,86,7.2,86,7.9V10c0,0.7,0.1,1.2,0.4,1.5
			c0.3,0.3,0.6,0.5,1.1,0.5c0.5,0,0.9-0.2,1.1-0.5c0.3-0.3,0.4-0.9,0.4-1.5V7.9z"/>
		<path class="st0" d="M96.9,12.8h-1.1V5.9h-2.9v6.9h-1.1V5.1h5.1V12.8z"/>
		<path class="st0" d="M103.7,10c0,0.9-0.2,1.6-0.7,2.1c-0.5,0.5-1.1,0.8-1.9,0.8c-0.8,0-1.4-0.3-1.9-0.8c-0.5-0.5-0.7-1.2-0.7-2.1
			V7.9c0-0.9,0.2-1.6,0.7-2.1c0.5-0.5,1.1-0.8,1.9-0.8c0.8,0,1.4,0.3,1.9,0.8c0.5,0.5,0.7,1.2,0.7,2.1V10z M102.6,7.9
			c0-0.7-0.1-1.2-0.4-1.5c-0.3-0.3-0.6-0.5-1.1-0.5c-0.5,0-0.8,0.2-1.1,0.5c-0.3,0.3-0.4,0.9-0.4,1.5V10c0,0.7,0.1,1.2,0.4,1.5
			c0.3,0.3,0.6,0.5,1.1,0.5c0.5,0,0.9-0.2,1.1-0.5c0.3-0.3,0.4-0.9,0.4-1.5V7.9z"/>
		<path class="st0" d="M110.2,5.1v7.7h-1.1V5.9H107l0,2.7c0,1.5-0.2,2.5-0.5,3.2c-0.3,0.7-0.9,1-1.6,1h-0.3V12h0.2
			c0.4,0,0.7-0.3,0.9-0.7c0.2-0.5,0.2-1.4,0.2-2.6l0-3.5H110.2z"/>
		<path class="st0" d="M113.1,8.2h1.3c0.7,0,1.3,0.2,1.7,0.6c0.4,0.4,0.6,1,0.6,1.6c0,0.7-0.2,1.2-0.6,1.7c-0.4,0.4-1,0.6-1.7,0.6
			h-2.4V5.1h1.1V8.2z M113.1,9V12h1.3c0.4,0,0.7-0.1,0.9-0.4c0.2-0.3,0.3-0.6,0.3-1.1c0-0.4-0.1-0.8-0.3-1c-0.2-0.3-0.5-0.4-0.9-0.4
			H113.1z"/>
		<path class="st0" d="M122.9,10.4L122.9,10.4c0,0.8-0.2,1.4-0.6,1.8c-0.4,0.4-1,0.6-1.7,0.6c-0.8,0-1.4-0.3-1.8-0.8
			c-0.4-0.5-0.7-1.2-0.7-2.1V7.9c0-0.9,0.2-1.6,0.7-2.1c0.4-0.5,1-0.8,1.8-0.8c0.8,0,1.3,0.2,1.7,0.6c0.4,0.4,0.6,1,0.6,1.8l0,0h-1
			c0-0.6-0.1-1-0.3-1.2c-0.2-0.3-0.5-0.4-1-0.4c-0.4,0-0.8,0.2-1,0.5c-0.2,0.4-0.4,0.9-0.4,1.5V10c0,0.7,0.1,1.2,0.4,1.5
			c0.2,0.4,0.6,0.5,1,0.5c0.4,0,0.8-0.1,1-0.4c0.2-0.3,0.3-0.7,0.3-1.2H122.9z"/>
		<path class="st0" d="M126.3,9.3h-0.7v3.4h-1.1V5.1h1.1v3.4h0.6l2-3.4h1.3l-2.4,3.6l2.6,4h-1.3L126.3,9.3z"/>
		<path class="st0" d="M134.9,5.1h1.1v7.7h-1.1V7.2l0,0l-2.9,5.6h-1.1V5.1h1.1v5.6l0,0L134.9,5.1z"/>
		<path class="st0" d="M141.8,5.1h1.1v7.7h-1.1V7.2l0,0l-2.9,5.6h-1.1V5.1h1.1v5.6l0,0L141.8,5.1z M141.8,2.9L141.8,2.9
			c0,0.4-0.1,0.8-0.4,1s-0.6,0.4-1.1,0.4c-0.5,0-0.8-0.1-1.1-0.4c-0.3-0.3-0.4-0.6-0.4-1l0,0h0.8c0,0.2,0.1,0.4,0.2,0.6
			c0.1,0.1,0.3,0.2,0.5,0.2c0.2,0,0.4-0.1,0.5-0.2c0.1-0.1,0.2-0.3,0.2-0.6H141.8z"/>
		<path class="st0" d="M53.1,17h-3v6.9H49v-7.7h4.1V17z"/>
		<path class="st0" d="M59.1,21.1c0,0.9-0.2,1.6-0.7,2.1c-0.5,0.5-1.1,0.8-1.9,0.8c-0.8,0-1.4-0.3-1.9-0.8C54.2,22.7,54,22,54,21.1
			V19c0-0.9,0.2-1.6,0.7-2.1c0.5-0.5,1.1-0.8,1.9-0.8c0.8,0,1.4,0.3,1.9,0.8c0.5,0.5,0.7,1.2,0.7,2.1V21.1z M58,19
			c0-0.7-0.1-1.2-0.4-1.5c-0.3-0.3-0.6-0.5-1.1-0.5c-0.5,0-0.8,0.2-1.1,0.5C55.2,17.8,55,18.3,55,19v2.1c0,0.7,0.1,1.2,0.4,1.5
			c0.3,0.3,0.6,0.5,1.1,0.5c0.5,0,0.9-0.2,1.1-0.5c0.3-0.3,0.4-0.9,0.4-1.5V19z"/>
		<path class="st0" d="M65.3,21.5L65.3,21.5c0,0.8-0.2,1.4-0.6,1.8c-0.4,0.4-1,0.6-1.7,0.6c-0.8,0-1.4-0.3-1.8-0.8
			c-0.4-0.5-0.7-1.2-0.7-2.1V19c0-0.9,0.2-1.6,0.7-2.1c0.4-0.5,1-0.8,1.8-0.8c0.8,0,1.3,0.2,1.7,0.6c0.4,0.4,0.6,1,0.6,1.8l0,0h-1
			c0-0.6-0.1-1-0.3-1.2c-0.2-0.3-0.5-0.4-1-0.4c-0.4,0-0.8,0.2-1,0.5c-0.2,0.4-0.4,0.9-0.4,1.5v2.1c0,0.7,0.1,1.2,0.4,1.5
			c0.2,0.4,0.6,0.5,1,0.5c0.4,0,0.8-0.1,1-0.4c0.2-0.3,0.3-0.7,0.3-1.2H65.3z"/>
		<path class="st0" d="M69,20l0.2,0.5h0l1.4-4.3h1.2l-2.3,6.3c-0.2,0.5-0.4,0.8-0.6,1.1c-0.2,0.2-0.6,0.4-1,0.4c-0.1,0-0.2,0-0.3,0
			s-0.2,0-0.2,0l0-0.8c0,0,0.1,0,0.2,0c0.1,0,0.2,0,0.2,0c0.2,0,0.4-0.1,0.5-0.2c0.1-0.1,0.2-0.4,0.3-0.7l0.1-0.4l-2.3-5.7h1.2
			L69,20z"/>
		<path class="st0" d="M78.6,25.7h-1v-1.9h-4.3v1.9h-1L72.2,23h0.5c0.2-0.2,0.4-0.7,0.6-1.3c0.2-0.6,0.3-1.5,0.3-2.6l0.2-3h4V23h0.8
			L78.6,25.7z M74.7,19.2c0,0.9-0.1,1.7-0.3,2.3c-0.2,0.7-0.4,1.2-0.6,1.6h3v-6h-2L74.7,19.2z"/>
		<path class="st0" d="M83.7,21.9h-2.4l-0.6,1.9h-1.1l2.4-7.7h1l2.3,7.7h-1.1L83.7,21.9z M81.5,21.1h2l-1-3.3h0L81.5,21.1z"/>
		<path class="st0" d="M87.7,20.8v3h-1.1v-7.7h2.5c0.7,0,1.3,0.2,1.7,0.6c0.4,0.4,0.6,1,0.6,1.7c0,0.7-0.2,1.3-0.6,1.7
			c-0.4,0.4-1,0.6-1.7,0.6H87.7z M87.7,20h1.4c0.4,0,0.7-0.1,0.9-0.4c0.2-0.3,0.3-0.6,0.3-1.1c0-0.4-0.1-0.8-0.3-1.1
			c-0.2-0.3-0.5-0.4-0.9-0.4h-1.4V20z"/>
		<path class="st0" d="M97.5,21.5L97.5,21.5c0,0.8-0.2,1.4-0.6,1.8c-0.4,0.4-1,0.6-1.7,0.6c-0.8,0-1.4-0.3-1.8-0.8
			c-0.4-0.5-0.7-1.2-0.7-2.1V19c0-0.9,0.2-1.6,0.7-2.1c0.4-0.5,1-0.8,1.8-0.8c0.8,0,1.3,0.2,1.7,0.6c0.4,0.4,0.6,1,0.6,1.8l0,0h-1
			c0-0.6-0.1-1-0.3-1.2c-0.2-0.3-0.5-0.4-1-0.4c-0.4,0-0.8,0.2-1,0.5c-0.2,0.4-0.4,0.9-0.4,1.5v2.1c0,0.7,0.1,1.2,0.4,1.5
			c0.2,0.4,0.6,0.5,1,0.5c0.4,0,0.8-0.1,1-0.4c0.2-0.3,0.3-0.7,0.3-1.2H97.5z"/>
		<path class="st0" d="M103.4,17h-2v6.9h-1.1V17h-2v-0.8h5V17z"/>
		<path class="st0" d="M104.8,23.9v-7.7h2.1c0.7,0,1.3,0.2,1.7,0.5c0.4,0.3,0.6,0.9,0.6,1.5c0,0.4-0.1,0.7-0.3,1
			c-0.2,0.3-0.4,0.5-0.8,0.6c0.4,0.1,0.7,0.3,1,0.6c0.2,0.3,0.3,0.7,0.3,1.2c0,0.7-0.2,1.2-0.6,1.6c-0.4,0.4-0.9,0.6-1.7,0.6H104.8z
			 M105.8,19.5h1.2c0.4,0,0.6-0.1,0.8-0.3c0.2-0.2,0.3-0.5,0.3-0.9c0-0.4-0.1-0.7-0.3-1c-0.2-0.2-0.5-0.3-0.9-0.3h-1.1V19.5z
			 M105.8,20.3V23h1.4c0.4,0,0.7-0.1,0.9-0.3c0.2-0.2,0.3-0.6,0.3-1c0-0.4-0.1-0.8-0.3-1c-0.2-0.3-0.4-0.4-0.8-0.4H105.8z"/>
		<path class="st0" d="M115,20.3h-2.8V23h3.3v0.8h-4.4v-7.7h4.3V17h-3.3v2.5h2.8V20.3z"/>
		<path class="st0" d="M122,23.9h-1.1v-3.4H118v3.4h-1.1v-7.7h1.1v3.5h2.9v-3.5h1.1V23.9z"/>
		<path class="st0" d="M128.9,23.9h-1.1v-3.4h-2.9v3.4h-1.1v-7.7h1.1v3.5h2.9v-3.5h1.1V23.9z"/>
		<path class="st0" d="M131.9,19.3h1.3c0.7,0,1.3,0.2,1.7,0.6c0.4,0.4,0.6,1,0.6,1.6c0,0.7-0.2,1.2-0.6,1.7c-0.4,0.4-1,0.6-1.7,0.6
			h-2.4v-7.7h1.1V19.3z M131.9,20.1V23h1.3c0.4,0,0.7-0.1,0.9-0.4s0.3-0.6,0.3-1.1c0-0.4-0.1-0.8-0.3-1c-0.2-0.3-0.5-0.4-0.9-0.4
			H131.9z M137.4,23.9h-1.1v-7.7h1.1V23.9z"/>
		<path class="st0" d="M143.3,16.2h1.1v7.7h-1.1v-5.6l0,0l-2.9,5.6h-1.1v-7.7h1.1v5.6l0,0L143.3,16.2z M143.3,14L143.3,14
			c0,0.4-0.1,0.8-0.4,1c-0.3,0.3-0.6,0.4-1.1,0.4c-0.5,0-0.8-0.1-1.1-0.4c-0.3-0.3-0.4-0.6-0.4-1l0,0h0.8c0,0.2,0.1,0.4,0.2,0.6
			c0.1,0.1,0.3,0.2,0.5,0.2c0.2,0,0.4-0.1,0.5-0.2c0.1-0.1,0.2-0.3,0.2-0.6H143.3z"/>
		<path class="st0" d="M51.1,31.1l0.2,0.5h0l1.4-4.3h1.2l-2.3,6.3c-0.2,0.5-0.4,0.8-0.6,1.1c-0.2,0.2-0.6,0.4-1,0.4
			c-0.1,0-0.2,0-0.3,0c-0.1,0-0.2,0-0.2,0l0-0.8c0,0,0.1,0,0.2,0c0.1,0,0.2,0,0.2,0c0.2,0,0.4-0.1,0.5-0.2c0.1-0.1,0.2-0.4,0.3-0.7
			l0.1-0.4l-2.3-5.7h1.2L51.1,31.1z"/>
		<path class="st0" d="M60.3,34.9h-1.1v-3.4h-2.9v3.4h-1.1v-7.7h1.1v3.5h2.9v-3.5h1.1V34.9z"/>
		<path class="st0" d="M66.2,27.3h1.1v7.7h-1.1v-5.6l0,0l-2.9,5.6h-1.1v-7.7h1.1v5.6l0,0L66.2,27.3z"/>
		<path class="st0" d="M69.2,34.9v-7.7h2.1c0.7,0,1.3,0.2,1.7,0.5c0.4,0.3,0.6,0.9,0.6,1.5c0,0.4-0.1,0.7-0.3,1
			c-0.2,0.3-0.4,0.5-0.8,0.6c0.4,0.1,0.7,0.3,1,0.7c0.2,0.3,0.3,0.7,0.3,1.2c0,0.7-0.2,1.2-0.6,1.6c-0.4,0.4-0.9,0.6-1.7,0.6H69.2z
			 M70.3,30.6h1.2c0.4,0,0.6-0.1,0.8-0.3c0.2-0.2,0.3-0.5,0.3-0.9c0-0.4-0.1-0.7-0.3-1c-0.2-0.2-0.5-0.3-0.9-0.3h-1.1V30.6z
			 M70.3,31.4v2.8h1.4c0.4,0,0.7-0.1,0.9-0.3c0.2-0.2,0.3-0.6,0.3-1c0-0.4-0.1-0.8-0.3-1c-0.2-0.3-0.4-0.4-0.8-0.4H70.3z"/>
		<path class="st0" d="M79.5,31.4h-2.8v2.8h3.3v0.8h-4.4v-7.7h4.3v0.8h-3.3v2.5h2.8V31.4z"/>
		<path class="st0" d="M82.4,31.9v3h-1.1v-7.7h2.5c0.7,0,1.3,0.2,1.7,0.6c0.4,0.4,0.6,1,0.6,1.7c0,0.7-0.2,1.3-0.6,1.7
			c-0.4,0.4-1,0.6-1.7,0.6H82.4z M82.4,31.1h1.4c0.4,0,0.7-0.1,0.9-0.4c0.2-0.3,0.3-0.6,0.3-1.1c0-0.4-0.1-0.8-0.3-1.1
			c-0.2-0.3-0.5-0.4-0.9-0.4h-1.4V31.1z"/>
		<path class="st0" d="M92.3,32.6L92.3,32.6c0,0.8-0.2,1.4-0.6,1.8c-0.4,0.4-1,0.6-1.7,0.6c-0.8,0-1.4-0.3-1.8-0.8
			c-0.4-0.5-0.7-1.2-0.7-2.1V30c0-0.9,0.2-1.6,0.7-2.1c0.4-0.5,1-0.8,1.8-0.8c0.8,0,1.3,0.2,1.7,0.6c0.4,0.4,0.6,1,0.6,1.8l0,0h-1
			c0-0.6-0.1-1-0.3-1.2c-0.2-0.3-0.5-0.4-1-0.4c-0.4,0-0.8,0.2-1,0.5c-0.2,0.4-0.4,0.9-0.4,1.5v2.1c0,0.7,0.1,1.2,0.4,1.5
			c0.2,0.4,0.6,0.5,1,0.5c0.4,0,0.8-0.1,1-0.4c0.2-0.3,0.3-0.7,0.3-1.2H92.3z"/>
		<path class="st0" d="M97.8,27.3h1.1v7.7h-1.1v-5.6l0,0l-2.9,5.6h-1.1v-7.7h1.1v5.6l0,0L97.8,27.3z"/>
		<path class="st0" d="M105.1,28.1h-2v6.9h-1.1v-6.9h-2v-0.8h5V28.1z"/>
		<path class="st0" d="M110.4,31.4h-2.8v2.8h3.3v0.8h-4.4v-7.7h4.3v0.8h-3.3v2.5h2.8V31.4z"/>
		<path class="st0" d="M116.8,28.1h-2v6.9h-1.1v-6.9h-2v-0.8h5V28.1z"/>
	</g>
</g>
<g>
</g>
<g>
</g>
<g>
</g>
<g>
</g>
<g>
</g>
<g>
</g>
<g>
</g>
<g>
</g>
<g>
</g>
<g>
</g>
<g>
</g>
<g>
</g>
<g>
</g>
<g>
</g>
<g>
</g>
</svg>
